<svg xmlns="http://www.w3.org/2000/svg" width="28.365" height="33.511" viewBox="0 0 28.365 33.511">
  <g id="Union_1" data-name="Union 1" transform="translate(0 -9.512)" fill="none">
    <path d="M9.362,34.588H.154L4.759,26.4,0,17.938l9.519,0L14.26,9.512,19,17.941h9.2l-4.6,8.181,4.761,8.464H18.847l-4.741,8.436Z" stroke="none"/>
    <path d="M 14.105299949646 38.94232940673828 L 17.10342979431152 33.60798263549805 L 17.67675971984863 32.5879020690918 L 18.84692001342773 32.5879020690918 L 24.94554328918457 32.5879020690918 L 21.8609504699707 27.10440063476562 L 21.30960083007812 26.12427139282227 L 21.8605899810791 25.14393043518066 L 24.78437614440918 19.94185447692871 L 19.00069046020508 19.94093132019043 L 17.83123016357422 19.94074058532715 L 17.25788116455078 18.92148017883301 L 14.25960063934326 13.59142303466797 L 11.26217079162598 18.91997146606445 L 10.68861103057861 19.93961143493652 L 9.518720626831055 19.93942070007324 L 3.419409990310669 19.93844604492188 L 6.502310752868652 25.42110061645508 L 7.053620338439941 26.40155029296875 L 6.502140522003174 27.38191032409668 L 3.573655843734741 32.5879020690918 L 9.362300872802734 32.5879020690918 L 10.53220081329346 32.5879020690918 L 11.10560035705566 33.60763931274414 L 14.105299949646 38.94232940673828 M 14.10570049285889 43.02360153198242 L 9.362300872802734 34.5879020690918 L 0.1539005637168884 34.5879020690918 L 4.759010791778564 26.4013614654541 L 5.661010504809383e-07 17.93790054321289 L 9.519040107727051 17.93942070007324 L 14.25960063934326 9.512101173400879 L 19.00101089477539 17.94093132019043 L 28.20240020751953 17.9423999786377 L 23.60408020019531 26.12385177612305 L 28.36530113220215 34.5879020690918 L 18.84692001342773 34.5879020690918 L 14.10570049285889 43.02360153198242 Z" stroke="none" fill="#fad42d"/>
  </g>
</svg>
